<svg xmlns="http://www.w3.org/2000/svg" xmlns:xlink="http://www.w3.org/1999/xlink" viewBox="0 0 646.44 476.82"><defs><clipPath id="a" transform="translate(0 0)"><rect width="646.44" height="476.82" fill="none"/></clipPath></defs><title>data-treasures</title><g clip-path="url(#a)"><path d="M238.91,180.56h20.2c-1.11-7-4.57-10.5-9.93-10.5s-8.93,3.13-10.27,10.5M258.33,306v-3.91c-9-.67-15.51,1.68-15.51,7.59,0,3.57,2.79,5.58,6.81,5.58s8.7-3,8.7-9.26M82.09,178.44c0-13.73-6.92-21.1-17-22-2.57-.23-4.36-.23-7.26-.23H51.62V202h6.25c2.9,0,4.69,0,7.26-.23,10-.89,17-9.6,17-23.32M71.82,53.89c0-4.36-2.34-6.48-6.14-7a33.4,33.4,0,0,0-5-.34h-9V61.25h9a33.28,33.28,0,0,0,4.91-.33c3.69-.56,6.25-2.46,6.25-7M74.72,84c0-5.13-3.68-7.81-7.81-8.14-1.45-.12-3.24-.12-5-.12H51.62V92.28H62.45c1.78,0,3.57,0,5-.11A7.83,7.83,0,0,0,74.72,84m47.11-13.17H142c-1.12-7-4.58-10.49-9.93-10.49s-8.93,3.13-10.27,10.49M145.6,196.29v-3.9c-9-.67-15.51,1.67-15.51,7.59,0,3.57,2.79,5.58,6.8,5.58s8.71-3,8.71-9.27M261.12,76.66v-.34c0-11.94-6.13-16-12.16-16-7.82,0-13.17,4.58-13.17,16.74,0,11.17,5.58,16.52,12.61,16.52,7.37,0,12.72-4.46,12.72-17m44.19,339.52c-9-.67-15.51,1.68-15.51,7.59,0,3.58,2.79,5.58,6.8,5.58s8.71-3,8.71-9.26Zm5.15-345.33h20.2c-1.12-7-4.58-10.49-9.93-10.49s-8.93,3.13-10.27,10.49M409.9,290.26h20.21c-1.12-7-4.58-10.49-9.94-10.49s-8.93,3.12-10.27,10.49m41.19,6.47a54.48,54.48,0,0,1-.33,5.81H409.24c1,9.93,5.35,12.72,11.05,12.72s9.15-2.9,9.93-7.48H450c-3.46,13.51-14.63,21.1-29.92,21.1-17.08,0-30.69-10.16-30.69-31.14,0-17.41,11.94-31.59,31.81-31.59s29.91,15.18,29.91,30.58m-65-105.35h-27.9V180.67h27.9Zm-34.49-114a54.44,54.44,0,0,1-.33,5.8H309.79c1,9.94,5.36,12.73,11,12.73S330,93,330.77,88.38h19.76c-3.46,13.5-14.62,21.09-29.92,21.09-17.07,0-30.69-10.15-30.69-31.14,0-17.41,11.94-31.59,31.81-31.59s29.91,15.18,29.91,30.59M288.8,158h20.09v9.26l5.36-7.36a24.91,24.91,0,0,1,13.4-3.46c12.27,0,19.53,5.8,21.09,16.18a78.1,78.1,0,0,1,.56,11.28v33.7H329.21V187.25c0-1.89,0-5.13-.22-8.14-.45-5.7-3.58-9.05-9.6-9.05s-10.5,5.92-10.5,19.43v28.12H288.8ZM285,268.16h9.49v-15.4h20.09v15.4h13.17v12.5H314.59v22c0,2,0,4.24.11,5.8.44,6,2.34,7.37,11.83,6.92v12.51a68.65,68.65,0,0,1-11.83,1c-14.85,0-19.31-4.58-20-13.73-.22-3.46-.22-6.25-.22-9.6V280.66H285Zm13.83,112.08c18.86,0,25.33,8.37,26.23,19.2.22,3,.33,6.48.33,10.16v16.74a101.75,101.75,0,0,0,1.12,15.07H306.87l-1.34-8.71L303.08,439a27.28,27.28,0,0,1-14.74,4c-9.82,0-19.08-6.14-19.08-17.63,0-12.73,12.05-20.54,32.25-20.54h3.8v-.89a33.73,33.73,0,0,0-.22-4.36c-.34-3-2.79-5.69-7.15-5.69-4.68,0-7.36,3-7.7,8.15l-19,.11c.11-13.95,12.5-21.88,27.57-21.88M281.22,92.73c0,3.68,0,8.26-.12,11.5-.67,19.53-14.06,28.24-34.26,28.24-17.86,0-28.69-7.26-30.14-20.88l-.11-1.11H236l.11,1.11c.45,3.91,5,6.14,11.28,6.14,7.47,0,12.94-3.23,13.5-11.27.11-1.79.22-4.58.22-7.81V97l-4.46,6.59q-5,3.68-14.06,3.68c-16.19,0-27.35-11-27.35-28.68,0-21.21,12.95-31.82,28.24-31.82,4.91,0,10.71,1.12,13.73,2.91l3.9,6.36v-7.7h20.1ZM215,171H201.85v22c0,2,0,4.24.12,5.8.44,6,2.34,7.37,11.83,6.92v12.5a67.66,67.66,0,0,1-11.83,1c-14.85,0-19.31-4.58-20-13.73-.23-3.46-.23-6.25-.23-9.6V171h-9.48v-12.5h9.48V143.05h20.09v15.41H215ZM212.35,63.49c-15.07-1-20.54,4.57-20.54,22.54v21.88H171.72V48.31h20.09v12L196.05,52a16.39,16.39,0,0,1,11.72-5.25,27.73,27.73,0,0,1,4.58.34ZM166.81,217.61H147.16l-1.34-8.7-2.45,6.25a27.28,27.28,0,0,1-14.74,4c-9.82,0-19.08-6.14-19.08-17.64,0-12.72,12-20.54,32.26-20.54h3.79v-.89a33.59,33.59,0,0,0-.22-4.35c-.34-3-2.79-5.7-7.15-5.7-4.68,0-7.36,3-7.7,8.15l-19,.11c.11-13.95,12.5-21.87,27.57-21.87,18.86,0,25.33,8.37,26.23,19.2.22,3,.33,6.47.33,10.15v16.74a101.66,101.66,0,0,0,1.12,15.07M163,77.33a54.44,54.44,0,0,1-.33,5.8H121.16c1,9.94,5.35,12.73,11.05,12.73s9.15-2.91,9.93-7.48H161.9c-3.46,13.5-14.62,21.09-29.92,21.09-17.07,0-30.69-10.15-30.69-31.14,0-17.41,11.94-31.59,31.81-31.59S163,61.92,163,77.33M81.53,66.05c9.71,2.79,14.18,9.27,14.18,18.64,0,14.4-11.72,21.55-22.1,22.77a88.27,88.27,0,0,1-11.39.45H31.53v-77H63.12a70.16,70.16,0,0,1,9.82.45C85.66,32.9,92.81,40.94,92.81,51c0,7-3.69,12.39-11.28,15.06M59.66,311.8c0-3.79-3.8-5.91-14.4-8.37-11.39-2.68-18.2-7.92-18.2-18.08,0-11.83,10.27-19.2,26.12-19.2,14.85,0,23.44,8.15,25,19H58.43c-.89-4.13-2.9-6.48-6.48-6.48-2.79,0-4.79,1.79-4.79,4.36,0,3.34,2.67,5.58,14.06,8.37,10.83,2.68,18.53,7.36,18.53,18.86,0,12.72-12,18.64-26.34,18.64-16.19,0-27.24-6.7-28.8-20.09H44.36c1.12,4.57,4.69,7.59,8.93,7.59,3.58,0,6.37-1.45,6.37-4.58M31,368c0-6,4.09-9.74,10.29-9.74S51.58,362,51.58,368s-4.09,9.74-10.29,9.74S31,374,31,368m.33,14.28H51.25v59.1H31.33ZM70.48,217.17a71.66,71.66,0,0,1-9.82.44H31.53v-77H60.66a71.66,71.66,0,0,1,9.82.44c17.86,2,32.59,13,32.59,37.06s-14.73,37.06-32.59,39.07M104.75,297c0,12.72,3.79,18.3,10.6,18.3,4.58,0,8.37-3.35,9.49-9.82H144.6c-2.24,15.4-14.18,23.44-30.36,23.44-17.08,0-30-11.05-30-30.69,0-20.54,13.84-32,31.37-32s28.24,10.94,28.79,24.33H125c-.89-7.81-4.8-10.71-9.82-10.71-6.7,0-10.38,5.69-10.38,17.19M63.2,382.29H83.13v9.52l4.75-7.64a22.75,22.75,0,0,1,12.73-3.43c10.07,0,16.38,5,18.93,11.51l6.2-8.08a22.7,22.7,0,0,1,12.72-3.43c11.85,0,18.49,6.86,19.81,14.94a76.68,76.68,0,0,1,.56,11.18v34.53H138.91V411.28a77.48,77.48,0,0,0-.45-8.07c-.66-5.65-3.32-9-8.52-9-6.42,0-9,5.87-9,15.94v31.21H101.05V411.28a79.94,79.94,0,0,0-.44-8.07c-.66-5.65-3.32-9-8.52-9-6.42,0-9,5.87-9,15.94v31.21H63.2Zm110-83.1v28.13H153.08v-82.6h20.09V277l5.36-7.37a24.85,24.85,0,0,1,13.39-3.46c12.28,0,19.53,5.81,21.1,16.19a79.56,79.56,0,0,1,.55,11.27v33.71H193.48V297c0-1.9,0-5.14-.22-8.15-.45-5.69-3.57-9-9.6-9s-10.49,5.91-10.49,19.42m106.37,28.13H259.9l-1.34-8.71-2.46,6.25a27.24,27.24,0,0,1-14.73,4c-9.83,0-19.09-6.14-19.09-17.64,0-12.72,12.06-20.53,32.26-20.53h3.79v-.9a33.67,33.67,0,0,0-.22-4.35c-.34-3-2.79-5.69-7.14-5.69-4.69,0-7.37,3-7.71,8.15l-19,.11c.11-13.95,12.5-21.88,27.57-21.88,18.86,0,25.34,8.37,26.23,19.2.22,3,.33,6.47.33,10.16v16.74a103.23,103.23,0,0,0,1.12,15.07M262.8,247.51c5,0,8.37,3.13,8.37,8.15s-3.35,8.15-8.37,8.15-8.37-3.13-8.37-8.15,3.34-8.15,8.37-8.15m-22.33,0c5,0,8.37,3.13,8.37,8.15s-3.34,8.15-8.37,8.15-8.37-3.13-8.37-8.15,3.35-8.15,8.37-8.15M218.37,188c0-17.42,11.95-31.59,31.81-31.59S280.1,171.63,280.1,187a52.08,52.08,0,0,1-.34,5.81H238.24c1,9.93,5.36,12.72,11,12.72s9.15-2.9,9.93-7.48H279c-3.46,13.51-14.62,21.1-29.91,21.1-17.08,0-30.7-10.16-30.7-31.14m-17.2,176.35h70.1V380h-25v61.39h-20.1V380h-25ZM332.89,315.6,363,280.66H334.57v-12.5h49.66v12.28l-29.8,34.38h30.14v12.5H332.89ZM337,359.37H357.1V420a35.35,35.35,0,0,0,.22,5.47c.34,2.34,1.34,3.12,6.59,2.9V442c-3.69.33-7.26.56-11.72.56-9.27,0-14.51-3.69-15-11.61-.22-3.13-.22-6.14-.22-10.61ZM646.44,476.82V0L0,.42v476.4Z" transform="translate(0 0)" fill="#fff"/></g></svg>